<svg width="111" height="61" viewBox="0 0 111 61" fill="none" xmlns="http://www.w3.org/2000/svg">
<g clip-path="url(#clip0_2486_938)">
<path d="M6.84641 12.4021C7.63395 13.6837 8.65717 14.803 9.32687 16.1658C14.9759 28.2566 24.9045 35.5771 36.4704 40.728C40.4518 42.5029 45.2333 43.2926 49.6676 43.1924C62.3192 43.0796 74.3818 40.0721 85.4957 33.8963C88.7021 32.1229 91.6233 29.6773 94.222 26.759C93.056 26.9538 91.7909 27.1301 90.6063 27.4246C87.1705 28.227 83.7161 29.129 80.2182 29.7135C78.736 29.9524 77.0491 29.6374 75.4801 29.2412C74.8848 29.1301 74.1592 28.0663 74.1717 27.4498C74.1841 26.8333 74.9842 25.8481 75.4989 25.8411C84.4171 24.8249 92.6905 21.2129 101.131 18.3541C104.09 17.3594 105.702 18.0731 106.39 20.9864C108.021 28.2012 107.989 35.5183 106.432 42.7567C106.395 42.9561 105.942 43.1809 105.235 43.6677C99.7903 40.3819 102.768 34.3369 100.839 28.7166C99.9212 29.7829 99.2389 30.6869 98.4947 31.373C83.1074 44.4863 65.0103 49.5643 45.202 48.9595C42.2313 48.9204 39.0933 48.1282 36.2096 47.074C25.6482 43.1421 16.7801 36.7416 10.1758 27.5665C8.0612 24.5932 6.79007 20.9522 5.48171 17.5105C4.91123 16.1663 5.22762 14.472 5.1905 13.0211C5.74247 12.8148 6.29444 12.6084 6.84641 12.4021Z" fill="#E0E5E7"/>
<path d="M6.84641 12.4021C7.63395 13.6837 8.65717 14.803 9.32687 16.1658C14.9759 28.2566 24.9045 35.5771 36.4704 40.728C40.4518 42.5029 45.2333 43.2926 49.6676 43.1924C62.3192 43.0796 74.3818 40.0721 85.4957 33.8963C88.7021 32.1229 91.6233 29.6773 94.222 26.759C93.056 26.9538 91.7909 27.1301 90.6063 27.4246C87.1705 28.227 83.7161 29.129 80.2182 29.7135C78.736 29.9524 77.0491 29.6374 75.4801 29.2412C74.8848 29.1301 74.1592 28.0663 74.1717 27.4498C74.1841 26.8333 74.9842 25.8481 75.4989 25.8411C84.4171 24.8249 92.6905 21.2129 101.131 18.3541C104.09 17.3594 105.702 18.0731 106.39 20.9864C108.021 28.2012 107.989 35.5183 106.432 42.7567C106.395 42.9561 105.942 43.1809 105.235 43.6677C99.7903 40.3819 102.768 34.3369 100.839 28.7166C99.9212 29.7829 99.2389 30.6869 98.4947 31.373C83.1074 44.4863 65.0103 49.5643 45.202 48.9595C42.2313 48.9204 39.0933 48.1282 36.2096 47.074C25.6482 43.1421 16.7801 36.7416 10.1758 27.5665C8.0612 24.5932 6.79007 20.9522 5.48171 17.5105C4.91123 16.1663 5.22762 14.472 5.1905 13.0211C5.74247 12.8148 6.29444 12.6084 6.84641 12.4021Z" fill="url(#paint0_linear_2486_938)"/>
</g>
<defs>
<linearGradient id="paint0_linear_2486_938" x1="8.85148" y1="11.7497" x2="104.066" y2="44.4824" gradientUnits="userSpaceOnUse">
<stop stop-color="#B75ECE"/>
<stop offset="1" stop-color="#0077FE"/>
</linearGradient>
<clipPath id="clip0_2486_938">
<rect width="105" height="41.5227" fill="white" transform="translate(7.62207) rotate(10.5776)"/>
</clipPath>
</defs>
</svg>
