<svg width="221" height="126" viewBox="0 0 221 126" fill="none" xmlns="http://www.w3.org/2000/svg">
<mask id="mask0_1_12" style="mask-type:luminance" maskUnits="userSpaceOnUse" x="104" y="58" width="112" height="61">
<path d="M215.838 77.2745L112.622 58L105 98.8171L208.216 118.092L215.838 77.2745Z" fill="white"/>
</mask>
<g mask="url(#mask0_1_12)">
<path d="M111.846 70.4021C112.634 71.6837 113.657 72.803 114.327 74.1658C119.976 86.2566 129.905 93.5771 141.47 98.728C145.452 100.503 150.233 101.293 154.668 101.192C167.319 101.08 179.382 98.0721 190.496 91.8963C193.702 90.1229 196.623 87.6773 199.222 84.759C198.056 84.9538 196.791 85.1301 195.606 85.4246C192.171 86.227 188.716 87.129 185.218 87.7135C183.736 87.9524 182.049 87.6374 180.48 87.2412C179.885 87.1301 179.159 86.0663 179.172 85.4498C179.184 84.8333 179.984 83.8481 180.499 83.8411C189.417 82.8249 197.69 79.2129 206.131 76.3541C209.09 75.3594 210.702 76.0731 211.39 78.9864C213.021 86.2012 212.989 93.5183 211.432 100.757C211.395 100.956 210.942 101.181 210.235 101.668C204.79 98.3819 207.768 92.3369 205.839 86.7166C204.921 87.7829 204.239 88.6869 203.495 89.373C188.107 102.486 170.01 107.564 150.202 106.959C147.231 106.92 144.093 106.128 141.21 105.074C130.648 101.142 121.78 94.7416 115.176 85.5665C113.061 82.5932 111.79 78.9522 110.482 75.5105C109.911 74.1663 110.228 72.472 110.191 71.0211C110.742 70.8148 111.294 70.6084 111.846 70.4021Z" fill="#E0E5E7"/>
<path d="M111.846 70.4021C112.634 71.6837 113.657 72.803 114.327 74.1658C119.976 86.2566 129.905 93.5771 141.47 98.728C145.452 100.503 150.233 101.293 154.668 101.192C167.319 101.08 179.382 98.0721 190.496 91.8963C193.702 90.1229 196.623 87.6773 199.222 84.759C198.056 84.9538 196.791 85.1301 195.606 85.4246C192.171 86.227 188.716 87.129 185.218 87.7135C183.736 87.9524 182.049 87.6374 180.48 87.2412C179.885 87.1301 179.159 86.0663 179.172 85.4498C179.184 84.8333 179.984 83.8481 180.499 83.8411C189.417 82.8249 197.69 79.2129 206.131 76.3541C209.09 75.3594 210.702 76.0731 211.39 78.9864C213.021 86.2012 212.989 93.5183 211.432 100.757C211.395 100.956 210.942 101.181 210.235 101.668C204.79 98.3819 207.768 92.3369 205.839 86.7166C204.921 87.7829 204.239 88.6869 203.495 89.373C188.107 102.486 170.01 107.564 150.202 106.959C147.231 106.92 144.093 106.128 141.21 105.074C130.648 101.142 121.78 94.7416 115.176 85.5665C113.061 82.5932 111.79 78.9522 110.482 75.5105C109.911 74.1663 110.228 72.472 110.191 71.0211C110.742 70.8148 111.294 70.6084 111.846 70.4021Z" fill="url(#paint0_linear_1_12)"/>
</g>
<path d="M14.0849 88.2818C12.7758 88.8089 11.5258 89.0398 10.3351 88.9745C9.14438 88.9092 8.0905 88.5541 7.17346 87.9091C6.25643 87.2641 5.55066 86.3274 5.05614 85.0991L4.78285 84.4203L7.93441 83.1515L8.2077 83.8303C8.61763 84.8485 9.24185 85.4893 10.0804 85.7527C10.9124 86 11.8698 85.9056 12.9527 85.4697C14.0517 85.0272 14.78 84.4804 15.1377 83.8293C15.5115 83.1717 15.5618 82.5035 15.2885 81.8247C15.0998 81.356 14.8095 81.0316 14.4176 80.8513C14.0419 80.6644 13.5597 80.5863 12.9709 80.6167C12.3918 80.6245 11.7061 80.694 10.9137 80.8251L10.3074 80.9284C9.0396 81.1383 7.90743 81.2185 6.91085 81.169C5.92393 81.0968 5.07406 80.8285 4.36126 80.3643C3.66462 79.8935 3.10808 79.1409 2.69164 78.1065C2.27521 77.0722 2.16301 76.0938 2.35506 75.1713C2.55676 74.2261 3.02398 73.3807 3.75672 72.6349C4.49911 71.8665 5.47638 71.2383 6.68851 70.7502C7.90065 70.2622 9.06 70.0396 10.1666 70.0824C11.2828 70.1026 12.2735 70.4174 13.1387 71.027C14.0135 71.6138 14.6982 72.5214 15.1927 73.7497L15.4855 74.477L12.334 75.7458L12.0412 75.0185C11.7809 74.372 11.4434 73.9069 11.0286 73.6231C10.6235 73.3167 10.1508 73.1689 9.61057 73.1799C9.06379 73.1746 8.46717 73.3021 7.8207 73.5624C6.85099 73.9528 6.20662 74.4282 5.88758 74.9886C5.5782 75.5264 5.55039 76.1104 5.80416 76.7407C5.97333 77.1609 6.22154 77.4742 6.54876 77.6805C6.89215 77.8803 7.32107 77.9894 7.83552 78.0076C8.34997 78.0259 8.97588 77.9711 9.71323 77.8433L10.3196 77.74C11.6359 77.5106 12.8198 77.419 13.8713 77.4651C14.9391 77.5048 15.8568 77.7551 16.6246 78.216C17.3924 78.6769 17.9845 79.4246 18.401 80.4589C18.8174 81.4933 18.9184 82.5138 18.7039 83.5205C18.499 84.5044 18.0028 85.4179 17.2153 86.2608C16.4375 87.0811 15.394 87.7548 14.0849 88.2818ZM28.4716 82.4897C27.2756 82.9712 26.1162 83.1469 24.9932 83.0167C23.88 82.8639 22.8793 82.431 21.9912 81.718C21.1128 80.9824 20.4198 79.9842 19.9123 78.7236L19.7952 78.4327C19.2876 77.1721 19.0989 75.9803 19.2291 74.8573C19.3527 73.7182 19.7662 72.716 20.4695 71.8506C21.1664 70.969 22.1128 70.2875 23.3088 69.806C24.4886 69.331 25.6222 69.1845 26.7097 69.3665C27.7906 69.5323 28.7622 69.9863 29.6245 70.7285C30.4802 71.4545 31.1554 72.4316 31.6499 73.6599L32.0696 74.7024L23.3179 78.2258C23.6821 79.037 24.2592 79.5841 25.0493 79.8671C25.8393 80.15 26.6545 80.1223 27.4949 79.7839C28.3515 79.4391 28.907 78.9994 29.1614 78.4651C29.4158 77.9307 29.5569 77.3949 29.5848 76.8578L32.6089 77.1616C32.5518 77.6729 32.4059 78.2669 32.1713 78.9436C31.9463 79.5976 31.5498 80.2456 30.9818 80.8874C30.4073 81.5131 29.5706 82.0472 28.4716 82.4897ZM22.4247 75.9372L28.049 73.6729C27.7046 73.0039 27.1973 72.5602 26.5271 72.3417C25.873 72.1167 25.1501 72.1636 24.3581 72.4825C23.5339 72.8143 22.9639 73.2879 22.6482 73.9034C22.3326 74.5188 22.2581 75.1967 22.4247 75.9372ZM42.4633 76.8566C41.2673 77.3381 40.1078 77.5138 38.9849 77.3836C37.8716 77.2308 36.8709 76.7979 35.9829 76.0849C35.1045 75.3493 34.4115 74.3511 33.904 73.0905L33.7868 72.7996C33.2793 71.539 33.0906 70.3472 33.2207 69.2242C33.3443 68.0851 33.7578 67.0829 34.4612 66.2175C35.158 65.3359 36.1044 64.6544 37.3004 64.1729C38.4802 63.6979 39.6139 63.5514 40.7013 63.7334C41.7823 63.8992 42.7539 64.3532 43.6161 65.0954C44.4719 65.8214 45.147 66.7985 45.6415 68.0268L46.0612 69.0693L37.3096 72.5927C37.6738 73.4039 38.2509 73.951 39.0409 74.234C39.831 74.5169 40.6462 74.4892 41.4866 74.1508C42.3432 73.806 42.8987 73.3663 43.153 72.832C43.4074 72.2976 43.5486 71.7618 43.5765 71.2247L46.6006 71.5285C46.5435 72.0398 46.3976 72.6338 46.1629 73.3105C45.9379 73.9645 45.5414 74.6125 44.9735 75.2543C44.399 75.88 43.5623 76.4141 42.4633 76.8566ZM36.4164 70.3041L42.0407 68.0398C41.6962 67.3708 41.1889 66.9271 40.5187 66.7086C39.8647 66.4836 39.1417 66.5305 38.3498 66.8494C37.5255 67.1812 36.9556 67.6548 36.6399 68.2703C36.3242 68.8857 36.2497 69.5636 36.4164 70.3041ZM60.2559 74.9332L59.1823 72.2665L65.7279 69.6312C66.1804 69.4491 66.309 69.1155 66.1138 68.6307L64.8938 65.6003L64.4574 65.776C64.4388 66.1028 64.3474 66.4589 64.1832 66.8443C64.0191 67.2296 63.7385 67.6056 63.3413 67.972C62.9442 68.3385 62.382 68.6682 61.6547 68.961C60.7174 69.3384 59.8085 69.4601 58.9282 69.3262C58.0576 69.1696 57.2754 68.7896 56.5817 68.1862C55.888 67.5827 55.3427 66.7881 54.9458 65.8022L52.0567 58.6264L55.1113 57.3966L57.9028 64.33C58.2671 65.2351 58.7586 65.826 59.3772 66.1029C60.0119 66.3732 60.7414 66.3424 61.5656 66.0106C62.503 65.6332 63.1067 65.0333 63.3766 64.211C63.64 63.3724 63.5472 62.3956 63.0982 61.2804L60.6387 55.1712L63.6933 53.9415L69.3932 68.0992C69.7251 68.9235 69.7462 69.6756 69.4565 70.3557C69.1734 71.0519 68.6278 71.5627 67.8197 71.888L60.2559 74.9332ZM77.7914 62.6333C76.5954 63.1149 75.423 63.3051 74.2743 63.2042C73.1255 63.1032 72.0909 62.7027 71.1705 62.0028C70.2502 61.3028 69.5297 60.3063 69.0091 59.0134L68.853 58.6255C68.3324 57.3325 68.1615 56.1148 68.3401 54.9724C68.5187 53.8299 68.9872 52.8243 69.7455 51.9555C70.5039 51.0868 71.481 50.4117 72.677 49.9302C73.873 49.4487 75.0453 49.2584 76.1941 49.3593C77.3428 49.4603 78.3774 49.8608 79.2978 50.5607C80.2182 51.2607 80.9387 52.2572 81.4592 53.5502L81.6154 53.938C82.1359 55.231 82.3069 56.4487 82.1283 57.5911C81.9496 58.7336 81.4812 59.7392 80.7228 60.608C79.9645 61.4767 78.9873 62.1518 77.7914 62.6333ZM76.6982 59.9182C77.6356 59.5408 78.291 58.9294 78.6644 58.0842C79.0313 57.2228 78.987 56.2264 78.5315 55.0951L78.4339 54.8527C77.9784 53.7213 77.3232 52.9803 76.4683 52.6296C75.6231 52.2562 74.7237 52.2614 73.7701 52.6453C72.8328 53.0227 72.1806 53.6421 71.8137 54.5035C71.4403 55.3488 71.4814 56.3371 71.9368 57.4684L72.0344 57.7108C72.4899 58.8422 73.1484 59.5913 74.0098 59.9582C74.8647 60.3089 75.7608 60.2956 76.6982 59.9182ZM91.4373 56.9704C90.4999 57.3478 89.5911 57.4695 88.7108 57.3356C87.8401 57.1791 87.058 56.799 86.3643 56.1956C85.6706 55.5922 85.1253 54.7975 84.7283 53.8116L81.8393 46.6358L84.8939 45.406L87.6853 52.3394C88.0497 53.2445 88.5412 53.8354 89.1597 54.1123C89.7945 54.3826 90.5239 54.3519 91.3482 54.02C92.2856 53.6426 92.8892 53.0427 93.1592 52.2204C93.4226 51.3818 93.3298 50.405 92.8808 49.2898L90.4212 43.1807L93.4758 41.9509L98.3169 53.9753L95.3108 55.1855L94.6764 53.6098L94.24 53.7854C94.2087 54.2676 94.0045 54.8099 93.6273 55.4125C93.2502 56.0152 92.5202 56.5344 91.4373 56.9704ZM101.716 52.6068L96.8749 40.5824L99.881 39.3721L100.428 40.7297L100.864 40.554C100.847 39.9976 100.994 39.5249 101.307 39.136C101.636 38.7405 102.076 38.4322 102.625 38.211L104.08 37.6254L105.173 40.3405L103.67 40.9457C102.894 41.258 102.34 41.7251 102.008 42.347C101.67 42.9528 101.673 43.684 102.018 44.5405L104.771 51.377L101.716 52.6068ZM117.483 46.2588L112.642 34.2344L115.648 33.0242L116.195 34.3818L116.631 34.2061C116.614 33.6496 116.762 33.177 117.074 32.788C117.404 32.3926 117.843 32.0842 118.392 31.863L119.847 31.2774L120.94 33.9926L119.437 34.5977C118.661 34.91 118.108 35.3772 117.776 35.9991C117.437 36.6048 117.441 37.336 117.785 38.1926L120.538 45.029L117.483 46.2588ZM130.681 41.3398C129.824 41.6846 128.998 41.8482 128.202 41.8306C127.4 41.7968 126.683 41.5784 126.051 41.1754C125.429 40.7498 124.952 40.1248 124.62 39.3006C124.288 38.4763 124.206 37.7113 124.372 37.0057C124.549 36.2773 124.929 35.6359 125.513 35.0814C126.107 34.5042 126.857 34.0334 127.762 33.669L131.059 32.3416L130.786 31.6628C130.558 31.0971 130.195 30.7081 129.696 30.4957C129.191 30.2671 128.55 30.309 127.774 30.6213C127.015 30.9271 126.521 31.3326 126.292 31.8379C126.057 32.3269 125.994 32.869 126.102 33.464L122.909 33.6507C122.855 32.9585 122.938 32.2773 123.157 31.6071C123.385 30.9142 123.793 30.2711 124.38 29.6778C124.977 29.0617 125.793 28.5455 126.827 28.129C128.411 27.4914 129.823 27.3831 131.063 27.8041C132.303 28.2251 133.226 29.1872 133.831 30.6902L135.637 35.1751C135.832 35.66 136.156 35.8113 136.608 35.6291L137.578 35.2387L138.593 37.76L136.557 38.5798C135.959 38.8206 135.407 38.8736 134.902 38.7388C134.397 38.6041 134.047 38.2943 133.852 37.8094L133.842 37.7852L133.381 37.9706C133.395 38.1906 133.353 38.5077 133.257 38.9221C133.155 39.3202 132.91 39.7381 132.523 40.1758C132.135 40.6134 131.521 41.0014 130.681 41.3398ZM130.219 38.6523C131.075 38.3074 131.676 37.7933 132.021 37.1099C132.375 36.4038 132.393 35.6548 132.074 34.8628L131.976 34.6204L128.897 35.86C128.332 36.0877 127.936 36.3878 127.71 36.7604C127.485 37.133 127.46 37.5374 127.636 37.9738C127.811 38.4102 128.124 38.6974 128.574 38.8355C129.024 38.9736 129.572 38.9125 130.219 38.6523ZM140.826 36.8608L135.985 24.8364L138.991 23.6261L139.626 25.2019L140.062 25.0262C140.087 24.528 140.291 23.9856 140.675 23.3991C141.052 22.7965 141.782 22.2772 142.865 21.8413C143.802 21.4639 144.706 21.3535 145.577 21.5101C146.457 21.644 147.244 22.0126 147.938 22.6161C148.625 23.2034 149.17 23.998 149.574 25.0001L152.463 32.1759L149.408 33.4057L146.617 26.4723C146.252 25.5672 145.753 24.9795 145.118 24.7092C144.5 24.4323 143.778 24.4598 142.954 24.7917C142.017 25.1691 141.416 25.777 141.153 26.6156C140.883 27.4379 140.972 28.4067 141.421 29.5219L143.881 35.631L140.826 36.8608ZM155.765 30.8465L148.933 13.8765L151.987 12.6467L155.765 22.0287L156.201 21.853L158.391 15.8159L162.366 14.2152L159.157 22.2686L167.401 26.1615L163.474 27.7427L157.333 24.6652L156.897 24.8408L158.82 29.6167L155.765 30.8465Z" fill="white"/>
<path d="M14.0849 88.2818C12.7758 88.8089 11.5258 89.0398 10.3351 88.9745C9.14438 88.9092 8.0905 88.5541 7.17346 87.9091C6.25643 87.2641 5.55066 86.3274 5.05614 85.0991L4.78285 84.4203L7.93441 83.1515L8.2077 83.8303C8.61763 84.8485 9.24185 85.4893 10.0804 85.7527C10.9124 86 11.8698 85.9056 12.9527 85.4697C14.0517 85.0272 14.78 84.4804 15.1377 83.8293C15.5115 83.1717 15.5618 82.5035 15.2885 81.8247C15.0998 81.356 14.8095 81.0316 14.4176 80.8513C14.0419 80.6644 13.5597 80.5863 12.9709 80.6167C12.3918 80.6245 11.7061 80.694 10.9137 80.8251L10.3074 80.9284C9.0396 81.1383 7.90743 81.2185 6.91085 81.169C5.92393 81.0968 5.07406 80.8285 4.36126 80.3643C3.66462 79.8935 3.10808 79.1409 2.69164 78.1065C2.27521 77.0722 2.16301 76.0938 2.35506 75.1713C2.55676 74.2261 3.02398 73.3807 3.75672 72.6349C4.49911 71.8665 5.47638 71.2383 6.68851 70.7502C7.90065 70.2622 9.06 70.0396 10.1666 70.0824C11.2828 70.1026 12.2735 70.4174 13.1387 71.027C14.0135 71.6138 14.6982 72.5214 15.1927 73.7497L15.4855 74.477L12.334 75.7458L12.0412 75.0185C11.7809 74.372 11.4434 73.9069 11.0286 73.6231C10.6235 73.3167 10.1508 73.1689 9.61057 73.1799C9.06379 73.1746 8.46717 73.3021 7.8207 73.5624C6.85099 73.9528 6.20662 74.4282 5.88758 74.9886C5.5782 75.5264 5.55039 76.1104 5.80416 76.7407C5.97333 77.1609 6.22154 77.4742 6.54876 77.6805C6.89215 77.8803 7.32107 77.9894 7.83552 78.0076C8.34997 78.0259 8.97588 77.9711 9.71323 77.8433L10.3196 77.74C11.6359 77.5106 12.8198 77.419 13.8713 77.4651C14.9391 77.5048 15.8568 77.7551 16.6246 78.216C17.3924 78.6769 17.9845 79.4246 18.401 80.4589C18.8174 81.4933 18.9184 82.5138 18.7039 83.5205C18.499 84.5044 18.0028 85.4179 17.2153 86.2608C16.4375 87.0811 15.394 87.7548 14.0849 88.2818ZM28.4716 82.4897C27.2756 82.9712 26.1162 83.1469 24.9932 83.0167C23.88 82.8639 22.8793 82.431 21.9912 81.718C21.1128 80.9824 20.4198 79.9842 19.9123 78.7236L19.7952 78.4327C19.2876 77.1721 19.0989 75.9803 19.2291 74.8573C19.3527 73.7182 19.7662 72.716 20.4695 71.8506C21.1664 70.969 22.1128 70.2875 23.3088 69.806C24.4886 69.331 25.6222 69.1845 26.7097 69.3665C27.7906 69.5323 28.7622 69.9863 29.6245 70.7285C30.4802 71.4545 31.1554 72.4316 31.6499 73.6599L32.0696 74.7024L23.3179 78.2258C23.6821 79.037 24.2592 79.5841 25.0493 79.8671C25.8393 80.15 26.6545 80.1223 27.4949 79.7839C28.3515 79.4391 28.907 78.9994 29.1614 78.4651C29.4158 77.9307 29.5569 77.3949 29.5848 76.8578L32.6089 77.1616C32.5518 77.6729 32.4059 78.2669 32.1713 78.9436C31.9463 79.5976 31.5498 80.2456 30.9818 80.8874C30.4073 81.5131 29.5706 82.0472 28.4716 82.4897ZM22.4247 75.9372L28.049 73.6729C27.7046 73.0039 27.1973 72.5602 26.5271 72.3417C25.873 72.1167 25.1501 72.1636 24.3581 72.4825C23.5339 72.8143 22.9639 73.2879 22.6482 73.9034C22.3326 74.5188 22.2581 75.1967 22.4247 75.9372ZM42.4633 76.8566C41.2673 77.3381 40.1078 77.5138 38.9849 77.3836C37.8716 77.2308 36.8709 76.7979 35.9829 76.0849C35.1045 75.3493 34.4115 74.3511 33.904 73.0905L33.7868 72.7996C33.2793 71.539 33.0906 70.3472 33.2207 69.2242C33.3443 68.0851 33.7578 67.0829 34.4612 66.2175C35.158 65.3359 36.1044 64.6544 37.3004 64.1729C38.4802 63.6979 39.6139 63.5514 40.7013 63.7334C41.7823 63.8992 42.7539 64.3532 43.6161 65.0954C44.4719 65.8214 45.147 66.7985 45.6415 68.0268L46.0612 69.0693L37.3096 72.5927C37.6738 73.4039 38.2509 73.951 39.0409 74.234C39.831 74.5169 40.6462 74.4892 41.4866 74.1508C42.3432 73.806 42.8987 73.3663 43.153 72.832C43.4074 72.2976 43.5486 71.7618 43.5765 71.2247L46.6006 71.5285C46.5435 72.0398 46.3976 72.6338 46.1629 73.3105C45.9379 73.9645 45.5414 74.6125 44.9735 75.2543C44.399 75.88 43.5623 76.4141 42.4633 76.8566ZM36.4164 70.3041L42.0407 68.0398C41.6962 67.3708 41.1889 66.9271 40.5187 66.7086C39.8647 66.4836 39.1417 66.5305 38.3498 66.8494C37.5255 67.1812 36.9556 67.6548 36.6399 68.2703C36.3242 68.8857 36.2497 69.5636 36.4164 70.3041ZM60.2559 74.9332L59.1823 72.2665L65.7279 69.6312C66.1804 69.4491 66.309 69.1155 66.1138 68.6307L64.8938 65.6003L64.4574 65.776C64.4388 66.1028 64.3474 66.4589 64.1832 66.8443C64.0191 67.2296 63.7385 67.6056 63.3413 67.972C62.9442 68.3385 62.382 68.6682 61.6547 68.961C60.7174 69.3384 59.8085 69.4601 58.9282 69.3262C58.0576 69.1696 57.2754 68.7896 56.5817 68.1862C55.888 67.5827 55.3427 66.7881 54.9458 65.8022L52.0567 58.6264L55.1113 57.3966L57.9028 64.33C58.2671 65.2351 58.7586 65.826 59.3772 66.1029C60.0119 66.3732 60.7414 66.3424 61.5656 66.0106C62.503 65.6332 63.1067 65.0333 63.3766 64.211C63.64 63.3724 63.5472 62.3956 63.0982 61.2804L60.6387 55.1712L63.6933 53.9415L69.3932 68.0992C69.7251 68.9235 69.7462 69.6756 69.4565 70.3557C69.1734 71.0519 68.6278 71.5627 67.8197 71.888L60.2559 74.9332ZM77.7914 62.6333C76.5954 63.1149 75.423 63.3051 74.2743 63.2042C73.1255 63.1032 72.0909 62.7027 71.1705 62.0028C70.2502 61.3028 69.5297 60.3063 69.0091 59.0134L68.853 58.6255C68.3324 57.3325 68.1615 56.1148 68.3401 54.9724C68.5187 53.8299 68.9872 52.8243 69.7455 51.9555C70.5039 51.0868 71.481 50.4117 72.677 49.9302C73.873 49.4487 75.0453 49.2584 76.1941 49.3593C77.3428 49.4603 78.3774 49.8608 79.2978 50.5607C80.2182 51.2607 80.9387 52.2572 81.4592 53.5502L81.6154 53.938C82.1359 55.231 82.3069 56.4487 82.1283 57.5911C81.9496 58.7336 81.4812 59.7392 80.7228 60.608C79.9645 61.4767 78.9873 62.1518 77.7914 62.6333ZM76.6982 59.9182C77.6356 59.5408 78.291 58.9294 78.6644 58.0842C79.0313 57.2228 78.987 56.2264 78.5315 55.0951L78.4339 54.8527C77.9784 53.7213 77.3232 52.9803 76.4683 52.6296C75.6231 52.2562 74.7237 52.2614 73.7701 52.6453C72.8328 53.0227 72.1806 53.6421 71.8137 54.5035C71.4403 55.3488 71.4814 56.3371 71.9368 57.4684L72.0344 57.7108C72.4899 58.8422 73.1484 59.5913 74.0098 59.9582C74.8647 60.3089 75.7608 60.2956 76.6982 59.9182ZM91.4373 56.9704C90.4999 57.3478 89.5911 57.4695 88.7108 57.3356C87.8401 57.1791 87.058 56.799 86.3643 56.1956C85.6706 55.5922 85.1253 54.7975 84.7283 53.8116L81.8393 46.6358L84.8939 45.406L87.6853 52.3394C88.0497 53.2445 88.5412 53.8354 89.1597 54.1123C89.7945 54.3826 90.5239 54.3519 91.3482 54.02C92.2856 53.6426 92.8892 53.0427 93.1592 52.2204C93.4226 51.3818 93.3298 50.405 92.8808 49.2898L90.4212 43.1807L93.4758 41.9509L98.3169 53.9753L95.3108 55.1855L94.6764 53.6098L94.24 53.7854C94.2087 54.2676 94.0045 54.8099 93.6273 55.4125C93.2502 56.0152 92.5202 56.5344 91.4373 56.9704ZM101.716 52.6068L96.8749 40.5824L99.881 39.3721L100.428 40.7297L100.864 40.554C100.847 39.9976 100.994 39.5249 101.307 39.136C101.636 38.7405 102.076 38.4322 102.625 38.211L104.08 37.6254L105.173 40.3405L103.67 40.9457C102.894 41.258 102.34 41.7251 102.008 42.347C101.67 42.9528 101.673 43.684 102.018 44.5405L104.771 51.377L101.716 52.6068ZM117.483 46.2588L112.642 34.2344L115.648 33.0242L116.195 34.3818L116.631 34.2061C116.614 33.6496 116.762 33.177 117.074 32.788C117.404 32.3926 117.843 32.0842 118.392 31.863L119.847 31.2774L120.94 33.9926L119.437 34.5977C118.661 34.91 118.108 35.3772 117.776 35.9991C117.437 36.6048 117.441 37.336 117.785 38.1926L120.538 45.029L117.483 46.2588ZM130.681 41.3398C129.824 41.6846 128.998 41.8482 128.202 41.8306C127.4 41.7968 126.683 41.5784 126.051 41.1754C125.429 40.7498 124.952 40.1248 124.62 39.3006C124.288 38.4763 124.206 37.7113 124.372 37.0057C124.549 36.2773 124.929 35.6359 125.513 35.0814C126.107 34.5042 126.857 34.0334 127.762 33.669L131.059 32.3416L130.786 31.6628C130.558 31.0971 130.195 30.7081 129.696 30.4957C129.191 30.2671 128.55 30.309 127.774 30.6213C127.015 30.9271 126.521 31.3326 126.292 31.8379C126.057 32.3269 125.994 32.869 126.102 33.464L122.909 33.6507C122.855 32.9585 122.938 32.2773 123.157 31.6071C123.385 30.9142 123.793 30.2711 124.38 29.6778C124.977 29.0617 125.793 28.5455 126.827 28.129C128.411 27.4914 129.823 27.3831 131.063 27.8041C132.303 28.2251 133.226 29.1872 133.831 30.6902L135.637 35.1751C135.832 35.66 136.156 35.8113 136.608 35.6291L137.578 35.2387L138.593 37.76L136.557 38.5798C135.959 38.8206 135.407 38.8736 134.902 38.7388C134.397 38.6041 134.047 38.2943 133.852 37.8094L133.842 37.7852L133.381 37.9706C133.395 38.1906 133.353 38.5077 133.257 38.9221C133.155 39.3202 132.91 39.7381 132.523 40.1758C132.135 40.6134 131.521 41.0014 130.681 41.3398ZM130.219 38.6523C131.075 38.3074 131.676 37.7933 132.021 37.1099C132.375 36.4038 132.393 35.6548 132.074 34.8628L131.976 34.6204L128.897 35.86C128.332 36.0877 127.936 36.3878 127.71 36.7604C127.485 37.133 127.46 37.5374 127.636 37.9738C127.811 38.4102 128.124 38.6974 128.574 38.8355C129.024 38.9736 129.572 38.9125 130.219 38.6523ZM140.826 36.8608L135.985 24.8364L138.991 23.6261L139.626 25.2019L140.062 25.0262C140.087 24.528 140.291 23.9856 140.675 23.3991C141.052 22.7965 141.782 22.2772 142.865 21.8413C143.802 21.4639 144.706 21.3535 145.577 21.5101C146.457 21.644 147.244 22.0126 147.938 22.6161C148.625 23.2034 149.17 23.998 149.574 25.0001L152.463 32.1759L149.408 33.4057L146.617 26.4723C146.252 25.5672 145.753 24.9795 145.118 24.7092C144.5 24.4323 143.778 24.4598 142.954 24.7917C142.017 25.1691 141.416 25.777 141.153 26.6156C140.883 27.4379 140.972 28.4067 141.421 29.5219L143.881 35.631L140.826 36.8608ZM155.765 30.8465L148.933 13.8765L151.987 12.6467L155.765 22.0287L156.201 21.853L158.391 15.8159L162.366 14.2152L159.157 22.2686L167.401 26.1615L163.474 27.7427L157.333 24.6652L156.897 24.8408L158.82 29.6167L155.765 30.8465Z" fill="url(#paint1_linear_1_12)"/>
<defs>
<linearGradient id="paint0_linear_1_12" x1="113.851" y1="69.7497" x2="209.066" y2="102.482" gradientUnits="userSpaceOnUse">
<stop stop-color="#B75ECE"/>
<stop offset="1" stop-color="#0077FE"/>
</linearGradient>
<linearGradient id="paint1_linear_1_12" x1="4.94206" y1="72.2623" x2="166.51" y2="53.6136" gradientUnits="userSpaceOnUse">
<stop stop-color="#B75ECE"/>
<stop offset="1" stop-color="#0077FE"/>
</linearGradient>
</defs>
</svg>
