<svg width="170" height="88" viewBox="0 0 170 88" fill="none" xmlns="http://www.w3.org/2000/svg">
<path d="M14.0849 80.2818C12.7758 80.8089 11.5258 81.0398 10.3351 80.9745C9.14438 80.9092 8.0905 80.5541 7.17346 79.9091C6.25643 79.2641 5.55066 78.3274 5.05614 77.0991L4.78285 76.4203L7.93441 75.1515L8.2077 75.8303C8.61763 76.8485 9.24185 77.4893 10.0804 77.7527C10.9124 78 11.8698 77.9056 12.9527 77.4697C14.0517 77.0272 14.78 76.4804 15.1377 75.8293C15.5115 75.1717 15.5618 74.5035 15.2885 73.8247C15.0998 73.356 14.8095 73.0316 14.4176 72.8513C14.0419 72.6644 13.5597 72.5863 12.9709 72.6167C12.3918 72.6245 11.7061 72.694 10.9137 72.8251L10.3074 72.9284C9.0396 73.1383 7.90743 73.2185 6.91085 73.169C5.92393 73.0968 5.07406 72.8285 4.36126 72.3643C3.66462 71.8935 3.10808 71.1409 2.69164 70.1065C2.27521 69.0722 2.16301 68.0938 2.35506 67.1713C2.55676 66.2261 3.02398 65.3807 3.75672 64.6349C4.49911 63.8665 5.47638 63.2383 6.68851 62.7502C7.90065 62.2622 9.06 62.0396 10.1666 62.0824C11.2828 62.1026 12.2735 62.4174 13.1387 63.027C14.0135 63.6138 14.6982 64.5214 15.1927 65.7497L15.4855 66.477L12.334 67.7458L12.0412 67.0185C11.7809 66.372 11.4434 65.9069 11.0286 65.6231C10.6235 65.3167 10.1508 65.1689 9.61057 65.1799C9.06379 65.1746 8.46717 65.3021 7.8207 65.5624C6.85099 65.9528 6.20662 66.4282 5.88758 66.9886C5.5782 67.5264 5.55039 68.1104 5.80416 68.7407C5.97333 69.1609 6.22154 69.4742 6.54876 69.6805C6.89215 69.8803 7.32107 69.9894 7.83552 70.0076C8.34997 70.0259 8.97588 69.9711 9.71323 69.8433L10.3196 69.74C11.6359 69.5106 12.8198 69.419 13.8713 69.4651C14.9391 69.5048 15.8568 69.7551 16.6246 70.216C17.3924 70.6769 17.9845 71.4246 18.401 72.4589C18.8174 73.4933 18.9184 74.5138 18.7039 75.5205C18.499 76.5044 18.0028 77.4179 17.2153 78.2608C16.4375 79.0811 15.394 79.7548 14.0849 80.2818ZM28.4716 74.4897C27.2756 74.9712 26.1162 75.1469 24.9932 75.0167C23.88 74.8639 22.8793 74.431 21.9912 73.718C21.1128 72.9824 20.4198 71.9842 19.9123 70.7236L19.7952 70.4327C19.2876 69.1721 19.0989 67.9803 19.2291 66.8573C19.3527 65.7182 19.7662 64.716 20.4695 63.8506C21.1664 62.969 22.1128 62.2875 23.3088 61.806C24.4886 61.331 25.6222 61.1845 26.7097 61.3665C27.7906 61.5323 28.7622 61.9863 29.6245 62.7285C30.4802 63.4545 31.1554 64.4316 31.6499 65.6599L32.0696 66.7024L23.3179 70.2258C23.6821 71.037 24.2592 71.5841 25.0493 71.8671C25.8393 72.15 26.6545 72.1223 27.4949 71.7839C28.3515 71.4391 28.907 70.9994 29.1614 70.4651C29.4158 69.9307 29.5569 69.3949 29.5848 68.8578L32.6089 69.1616C32.5518 69.6729 32.4059 70.2669 32.1713 70.9436C31.9463 71.5976 31.5498 72.2456 30.9818 72.8874C30.4073 73.5131 29.5706 74.0472 28.4716 74.4897ZM22.4247 67.9372L28.049 65.6729C27.7046 65.0039 27.1973 64.5602 26.5271 64.3417C25.873 64.1167 25.1501 64.1636 24.3581 64.4825C23.5339 64.8143 22.9639 65.2879 22.6482 65.9034C22.3326 66.5188 22.2581 67.1967 22.4247 67.9372ZM42.4633 68.8566C41.2673 69.3381 40.1078 69.5138 38.9849 69.3836C37.8716 69.2308 36.8709 68.7979 35.9829 68.0849C35.1045 67.3493 34.4115 66.3511 33.904 65.0905L33.7868 64.7996C33.2793 63.539 33.0906 62.3472 33.2207 61.2242C33.3443 60.0851 33.7578 59.0829 34.4612 58.2175C35.158 57.3359 36.1044 56.6544 37.3004 56.1729C38.4802 55.6979 39.6139 55.5514 40.7013 55.7334C41.7823 55.8992 42.7539 56.3532 43.6161 57.0954C44.4719 57.8214 45.147 58.7985 45.6415 60.0268L46.0612 61.0693L37.3096 64.5927C37.6738 65.4039 38.2509 65.951 39.0409 66.234C39.831 66.5169 40.6462 66.4892 41.4866 66.1508C42.3432 65.806 42.8987 65.3663 43.153 64.832C43.4074 64.2976 43.5486 63.7618 43.5765 63.2247L46.6006 63.5285C46.5435 64.0398 46.3976 64.6338 46.1629 65.3105C45.9379 65.9645 45.5414 66.6125 44.9735 67.2543C44.399 67.88 43.5623 68.4141 42.4633 68.8566ZM36.4164 62.3041L42.0407 60.0398C41.6962 59.3708 41.1889 58.9271 40.5187 58.7086C39.8647 58.4836 39.1417 58.5305 38.3498 58.8494C37.5255 59.1812 36.9556 59.6548 36.6399 60.2703C36.3242 60.8857 36.2497 61.5636 36.4164 62.3041ZM60.2559 66.9332L59.1823 64.2665L65.7279 61.6312C66.1804 61.4491 66.309 61.1155 66.1138 60.6307L64.8938 57.6003L64.4574 57.776C64.4388 58.1028 64.3474 58.4589 64.1832 58.8443C64.0191 59.2296 63.7385 59.6056 63.3413 59.972C62.9442 60.3385 62.382 60.6682 61.6547 60.961C60.7174 61.3384 59.8085 61.4601 58.9282 61.3262C58.0576 61.1696 57.2754 60.7896 56.5817 60.1862C55.888 59.5827 55.3427 58.7881 54.9458 57.8022L52.0567 50.6264L55.1113 49.3966L57.9028 56.33C58.2671 57.2351 58.7586 57.826 59.3772 58.1029C60.0119 58.3732 60.7414 58.3424 61.5656 58.0106C62.503 57.6332 63.1067 57.0333 63.3766 56.211C63.64 55.3724 63.5472 54.3956 63.0982 53.2804L60.6387 47.1712L63.6933 45.9415L69.3932 60.0992C69.7251 60.9235 69.7462 61.6756 69.4565 62.3557C69.1734 63.0519 68.6278 63.5627 67.8197 63.888L60.2559 66.9332ZM77.7914 54.6333C76.5954 55.1149 75.423 55.3051 74.2743 55.2042C73.1255 55.1032 72.0909 54.7027 71.1705 54.0028C70.2502 53.3028 69.5297 52.3063 69.0091 51.0134L68.853 50.6255C68.3324 49.3325 68.1615 48.1148 68.3401 46.9724C68.5187 45.8299 68.9872 44.8243 69.7455 43.9555C70.5039 43.0868 71.481 42.4117 72.677 41.9302C73.873 41.4487 75.0453 41.2584 76.1941 41.3593C77.3428 41.4603 78.3774 41.8608 79.2978 42.5607C80.2182 43.2607 80.9387 44.2572 81.4592 45.5502L81.6154 45.938C82.1359 47.231 82.3069 48.4487 82.1283 49.5911C81.9496 50.7336 81.4812 51.7392 80.7228 52.608C79.9645 53.4767 78.9873 54.1518 77.7914 54.6333ZM76.6982 51.9182C77.6356 51.5408 78.291 50.9294 78.6644 50.0842C79.0313 49.2228 78.987 48.2264 78.5315 47.0951L78.4339 46.8527C77.9784 45.7213 77.3232 44.9803 76.4683 44.6296C75.6231 44.2562 74.7237 44.2614 73.7701 44.6453C72.8328 45.0227 72.1806 45.6421 71.8137 46.5035C71.4403 47.3488 71.4814 48.3371 71.9368 49.4684L72.0344 49.7108C72.4899 50.8422 73.1484 51.5913 74.0098 51.9582C74.8647 52.3089 75.7608 52.2956 76.6982 51.9182ZM91.4373 48.9704C90.4999 49.3478 89.5911 49.4695 88.7108 49.3356C87.8401 49.1791 87.058 48.799 86.3643 48.1956C85.6706 47.5922 85.1253 46.7975 84.7283 45.8116L81.8393 38.6358L84.8939 37.406L87.6853 44.3394C88.0497 45.2445 88.5412 45.8354 89.1597 46.1123C89.7945 46.3826 90.5239 46.3519 91.3482 46.02C92.2856 45.6426 92.8892 45.0427 93.1592 44.2204C93.4226 43.3818 93.3298 42.405 92.8808 41.2898L90.4212 35.1807L93.4758 33.9509L98.3169 45.9753L95.3108 47.1855L94.6764 45.6098L94.24 45.7854C94.2087 46.2676 94.0045 46.8099 93.6273 47.4125C93.2502 48.0152 92.5202 48.5344 91.4373 48.9704ZM101.716 44.6068L96.8749 32.5824L99.881 31.3721L100.428 32.7297L100.864 32.554C100.847 31.9976 100.994 31.5249 101.307 31.136C101.636 30.7405 102.076 30.4322 102.625 30.211L104.08 29.6254L105.173 32.3405L103.67 32.9457C102.894 33.258 102.34 33.7251 102.008 34.347C101.67 34.9528 101.673 35.684 102.018 36.5405L104.771 43.377L101.716 44.6068ZM117.483 38.2588L112.642 26.2344L115.648 25.0242L116.195 26.3818L116.631 26.2061C116.614 25.6496 116.762 25.177 117.074 24.788C117.404 24.3926 117.843 24.0842 118.392 23.863L119.847 23.2774L120.94 25.9926L119.437 26.5977C118.661 26.91 118.108 27.3772 117.776 27.9991C117.437 28.6048 117.441 29.336 117.785 30.1926L120.538 37.029L117.483 38.2588ZM130.681 33.3398C129.824 33.6846 128.998 33.8482 128.202 33.8306C127.4 33.7968 126.683 33.5784 126.051 33.1754C125.429 32.7498 124.952 32.1248 124.62 31.3006C124.288 30.4763 124.206 29.7113 124.372 29.0057C124.549 28.2773 124.929 27.6359 125.513 27.0814C126.107 26.5042 126.857 26.0334 127.762 25.669L131.059 24.3416L130.786 23.6628C130.558 23.0971 130.195 22.7081 129.696 22.4957C129.191 22.2671 128.55 22.309 127.774 22.6213C127.015 22.9271 126.521 23.3326 126.292 23.8379C126.057 24.3269 125.994 24.869 126.102 25.464L122.909 25.6507C122.855 24.9585 122.938 24.2773 123.157 23.6071C123.385 22.9142 123.793 22.2711 124.38 21.6778C124.977 21.0617 125.793 20.5455 126.827 20.129C128.411 19.4914 129.823 19.3831 131.063 19.8041C132.303 20.2251 133.226 21.1872 133.831 22.6902L135.637 27.1751C135.832 27.66 136.156 27.8113 136.608 27.6291L137.578 27.2387L138.593 29.76L136.557 30.5798C135.959 30.8206 135.407 30.8736 134.902 30.7388C134.397 30.6041 134.047 30.2943 133.852 29.8094L133.842 29.7852L133.381 29.9706C133.395 30.1906 133.353 30.5077 133.257 30.9221C133.155 31.3202 132.91 31.7381 132.523 32.1758C132.135 32.6134 131.521 33.0014 130.681 33.3398ZM130.219 30.6523C131.075 30.3074 131.676 29.7933 132.021 29.1099C132.375 28.4038 132.393 27.6548 132.074 26.8628L131.976 26.6204L128.897 27.86C128.332 28.0877 127.936 28.3878 127.71 28.7604C127.485 29.133 127.46 29.5374 127.636 29.9738C127.811 30.4102 128.124 30.6974 128.574 30.8355C129.024 30.9736 129.572 30.9125 130.219 30.6523ZM140.826 28.8608L135.985 16.8364L138.991 15.6261L139.626 17.2019L140.062 17.0262C140.087 16.528 140.291 15.9856 140.675 15.3991C141.052 14.7965 141.782 14.2772 142.865 13.8413C143.802 13.4639 144.706 13.3535 145.577 13.5101C146.457 13.644 147.244 14.0126 147.938 14.6161C148.625 15.2034 149.17 15.998 149.574 17.0001L152.463 24.1759L149.408 25.4057L146.617 18.4723C146.252 17.5672 145.753 16.9795 145.118 16.7092C144.5 16.4323 143.778 16.4598 142.954 16.7917C142.017 17.1691 141.416 17.777 141.153 18.6156C140.883 19.4379 140.972 20.4067 141.421 21.5219L143.881 27.631L140.826 28.8608ZM155.765 22.8465L148.933 5.87654L151.987 4.64675L155.765 14.0287L156.201 13.853L158.391 7.81591L162.366 6.21523L159.157 14.2686L167.401 18.1615L163.474 19.7427L157.333 16.6652L156.897 16.8408L158.82 21.6167L155.765 22.8465Z" fill="white"/>
<path d="M14.0849 80.2818C12.7758 80.8089 11.5258 81.0398 10.3351 80.9745C9.14438 80.9092 8.0905 80.5541 7.17346 79.9091C6.25643 79.2641 5.55066 78.3274 5.05614 77.0991L4.78285 76.4203L7.93441 75.1515L8.2077 75.8303C8.61763 76.8485 9.24185 77.4893 10.0804 77.7527C10.9124 78 11.8698 77.9056 12.9527 77.4697C14.0517 77.0272 14.78 76.4804 15.1377 75.8293C15.5115 75.1717 15.5618 74.5035 15.2885 73.8247C15.0998 73.356 14.8095 73.0316 14.4176 72.8513C14.0419 72.6644 13.5597 72.5863 12.9709 72.6167C12.3918 72.6245 11.7061 72.694 10.9137 72.8251L10.3074 72.9284C9.0396 73.1383 7.90743 73.2185 6.91085 73.169C5.92393 73.0968 5.07406 72.8285 4.36126 72.3643C3.66462 71.8935 3.10808 71.1409 2.69164 70.1065C2.27521 69.0722 2.16301 68.0938 2.35506 67.1713C2.55676 66.2261 3.02398 65.3807 3.75672 64.6349C4.49911 63.8665 5.47638 63.2383 6.68851 62.7502C7.90065 62.2622 9.06 62.0396 10.1666 62.0824C11.2828 62.1026 12.2735 62.4174 13.1387 63.027C14.0135 63.6138 14.6982 64.5214 15.1927 65.7497L15.4855 66.477L12.334 67.7458L12.0412 67.0185C11.7809 66.372 11.4434 65.9069 11.0286 65.6231C10.6235 65.3167 10.1508 65.1689 9.61057 65.1799C9.06379 65.1746 8.46717 65.3021 7.8207 65.5624C6.85099 65.9528 6.20662 66.4282 5.88758 66.9886C5.5782 67.5264 5.55039 68.1104 5.80416 68.7407C5.97333 69.1609 6.22154 69.4742 6.54876 69.6805C6.89215 69.8803 7.32107 69.9894 7.83552 70.0076C8.34997 70.0259 8.97588 69.9711 9.71323 69.8433L10.3196 69.74C11.6359 69.5106 12.8198 69.419 13.8713 69.4651C14.9391 69.5048 15.8568 69.7551 16.6246 70.216C17.3924 70.6769 17.9845 71.4246 18.401 72.4589C18.8174 73.4933 18.9184 74.5138 18.7039 75.5205C18.499 76.5044 18.0028 77.4179 17.2153 78.2608C16.4375 79.0811 15.394 79.7548 14.0849 80.2818ZM28.4716 74.4897C27.2756 74.9712 26.1162 75.1469 24.9932 75.0167C23.88 74.8639 22.8793 74.431 21.9912 73.718C21.1128 72.9824 20.4198 71.9842 19.9123 70.7236L19.7952 70.4327C19.2876 69.1721 19.0989 67.9803 19.2291 66.8573C19.3527 65.7182 19.7662 64.716 20.4695 63.8506C21.1664 62.969 22.1128 62.2875 23.3088 61.806C24.4886 61.331 25.6222 61.1845 26.7097 61.3665C27.7906 61.5323 28.7622 61.9863 29.6245 62.7285C30.4802 63.4545 31.1554 64.4316 31.6499 65.6599L32.0696 66.7024L23.3179 70.2258C23.6821 71.037 24.2592 71.5841 25.0493 71.8671C25.8393 72.15 26.6545 72.1223 27.4949 71.7839C28.3515 71.4391 28.907 70.9994 29.1614 70.4651C29.4158 69.9307 29.5569 69.3949 29.5848 68.8578L32.6089 69.1616C32.5518 69.6729 32.4059 70.2669 32.1713 70.9436C31.9463 71.5976 31.5498 72.2456 30.9818 72.8874C30.4073 73.5131 29.5706 74.0472 28.4716 74.4897ZM22.4247 67.9372L28.049 65.6729C27.7046 65.0039 27.1973 64.5602 26.5271 64.3417C25.873 64.1167 25.1501 64.1636 24.3581 64.4825C23.5339 64.8143 22.9639 65.2879 22.6482 65.9034C22.3326 66.5188 22.2581 67.1967 22.4247 67.9372ZM42.4633 68.8566C41.2673 69.3381 40.1078 69.5138 38.9849 69.3836C37.8716 69.2308 36.8709 68.7979 35.9829 68.0849C35.1045 67.3493 34.4115 66.3511 33.904 65.0905L33.7868 64.7996C33.2793 63.539 33.0906 62.3472 33.2207 61.2242C33.3443 60.0851 33.7578 59.0829 34.4612 58.2175C35.158 57.3359 36.1044 56.6544 37.3004 56.1729C38.4802 55.6979 39.6139 55.5514 40.7013 55.7334C41.7823 55.8992 42.7539 56.3532 43.6161 57.0954C44.4719 57.8214 45.147 58.7985 45.6415 60.0268L46.0612 61.0693L37.3096 64.5927C37.6738 65.4039 38.2509 65.951 39.0409 66.234C39.831 66.5169 40.6462 66.4892 41.4866 66.1508C42.3432 65.806 42.8987 65.3663 43.153 64.832C43.4074 64.2976 43.5486 63.7618 43.5765 63.2247L46.6006 63.5285C46.5435 64.0398 46.3976 64.6338 46.1629 65.3105C45.9379 65.9645 45.5414 66.6125 44.9735 67.2543C44.399 67.88 43.5623 68.4141 42.4633 68.8566ZM36.4164 62.3041L42.0407 60.0398C41.6962 59.3708 41.1889 58.9271 40.5187 58.7086C39.8647 58.4836 39.1417 58.5305 38.3498 58.8494C37.5255 59.1812 36.9556 59.6548 36.6399 60.2703C36.3242 60.8857 36.2497 61.5636 36.4164 62.3041ZM60.2559 66.9332L59.1823 64.2665L65.7279 61.6312C66.1804 61.4491 66.309 61.1155 66.1138 60.6307L64.8938 57.6003L64.4574 57.776C64.4388 58.1028 64.3474 58.4589 64.1832 58.8443C64.0191 59.2296 63.7385 59.6056 63.3413 59.972C62.9442 60.3385 62.382 60.6682 61.6547 60.961C60.7174 61.3384 59.8085 61.4601 58.9282 61.3262C58.0576 61.1696 57.2754 60.7896 56.5817 60.1862C55.888 59.5827 55.3427 58.7881 54.9458 57.8022L52.0567 50.6264L55.1113 49.3966L57.9028 56.33C58.2671 57.2351 58.7586 57.826 59.3772 58.1029C60.0119 58.3732 60.7414 58.3424 61.5656 58.0106C62.503 57.6332 63.1067 57.0333 63.3766 56.211C63.64 55.3724 63.5472 54.3956 63.0982 53.2804L60.6387 47.1712L63.6933 45.9415L69.3932 60.0992C69.7251 60.9235 69.7462 61.6756 69.4565 62.3557C69.1734 63.0519 68.6278 63.5627 67.8197 63.888L60.2559 66.9332ZM77.7914 54.6333C76.5954 55.1149 75.423 55.3051 74.2743 55.2042C73.1255 55.1032 72.0909 54.7027 71.1705 54.0028C70.2502 53.3028 69.5297 52.3063 69.0091 51.0134L68.853 50.6255C68.3324 49.3325 68.1615 48.1148 68.3401 46.9724C68.5187 45.8299 68.9872 44.8243 69.7455 43.9555C70.5039 43.0868 71.481 42.4117 72.677 41.9302C73.873 41.4487 75.0453 41.2584 76.1941 41.3593C77.3428 41.4603 78.3774 41.8608 79.2978 42.5607C80.2182 43.2607 80.9387 44.2572 81.4592 45.5502L81.6154 45.938C82.1359 47.231 82.3069 48.4487 82.1283 49.5911C81.9496 50.7336 81.4812 51.7392 80.7228 52.608C79.9645 53.4767 78.9873 54.1518 77.7914 54.6333ZM76.6982 51.9182C77.6356 51.5408 78.291 50.9294 78.6644 50.0842C79.0313 49.2228 78.987 48.2264 78.5315 47.0951L78.4339 46.8527C77.9784 45.7213 77.3232 44.9803 76.4683 44.6296C75.6231 44.2562 74.7237 44.2614 73.7701 44.6453C72.8328 45.0227 72.1806 45.6421 71.8137 46.5035C71.4403 47.3488 71.4814 48.3371 71.9368 49.4684L72.0344 49.7108C72.4899 50.8422 73.1484 51.5913 74.0098 51.9582C74.8647 52.3089 75.7608 52.2956 76.6982 51.9182ZM91.4373 48.9704C90.4999 49.3478 89.5911 49.4695 88.7108 49.3356C87.8401 49.1791 87.058 48.799 86.3643 48.1956C85.6706 47.5922 85.1253 46.7975 84.7283 45.8116L81.8393 38.6358L84.8939 37.406L87.6853 44.3394C88.0497 45.2445 88.5412 45.8354 89.1597 46.1123C89.7945 46.3826 90.5239 46.3519 91.3482 46.02C92.2856 45.6426 92.8892 45.0427 93.1592 44.2204C93.4226 43.3818 93.3298 42.405 92.8808 41.2898L90.4212 35.1807L93.4758 33.9509L98.3169 45.9753L95.3108 47.1855L94.6764 45.6098L94.24 45.7854C94.2087 46.2676 94.0045 46.8099 93.6273 47.4125C93.2502 48.0152 92.5202 48.5344 91.4373 48.9704ZM101.716 44.6068L96.8749 32.5824L99.881 31.3721L100.428 32.7297L100.864 32.554C100.847 31.9976 100.994 31.5249 101.307 31.136C101.636 30.7405 102.076 30.4322 102.625 30.211L104.08 29.6254L105.173 32.3405L103.67 32.9457C102.894 33.258 102.34 33.7251 102.008 34.347C101.67 34.9528 101.673 35.684 102.018 36.5405L104.771 43.377L101.716 44.6068ZM117.483 38.2588L112.642 26.2344L115.648 25.0242L116.195 26.3818L116.631 26.2061C116.614 25.6496 116.762 25.177 117.074 24.788C117.404 24.3926 117.843 24.0842 118.392 23.863L119.847 23.2774L120.94 25.9926L119.437 26.5977C118.661 26.91 118.108 27.3772 117.776 27.9991C117.437 28.6048 117.441 29.336 117.785 30.1926L120.538 37.029L117.483 38.2588ZM130.681 33.3398C129.824 33.6846 128.998 33.8482 128.202 33.8306C127.4 33.7968 126.683 33.5784 126.051 33.1754C125.429 32.7498 124.952 32.1248 124.62 31.3006C124.288 30.4763 124.206 29.7113 124.372 29.0057C124.549 28.2773 124.929 27.6359 125.513 27.0814C126.107 26.5042 126.857 26.0334 127.762 25.669L131.059 24.3416L130.786 23.6628C130.558 23.0971 130.195 22.7081 129.696 22.4957C129.191 22.2671 128.55 22.309 127.774 22.6213C127.015 22.9271 126.521 23.3326 126.292 23.8379C126.057 24.3269 125.994 24.869 126.102 25.464L122.909 25.6507C122.855 24.9585 122.938 24.2773 123.157 23.6071C123.385 22.9142 123.793 22.2711 124.38 21.6778C124.977 21.0617 125.793 20.5455 126.827 20.129C128.411 19.4914 129.823 19.3831 131.063 19.8041C132.303 20.2251 133.226 21.1872 133.831 22.6902L135.637 27.1751C135.832 27.66 136.156 27.8113 136.608 27.6291L137.578 27.2387L138.593 29.76L136.557 30.5798C135.959 30.8206 135.407 30.8736 134.902 30.7388C134.397 30.6041 134.047 30.2943 133.852 29.8094L133.842 29.7852L133.381 29.9706C133.395 30.1906 133.353 30.5077 133.257 30.9221C133.155 31.3202 132.91 31.7381 132.523 32.1758C132.135 32.6134 131.521 33.0014 130.681 33.3398ZM130.219 30.6523C131.075 30.3074 131.676 29.7933 132.021 29.1099C132.375 28.4038 132.393 27.6548 132.074 26.8628L131.976 26.6204L128.897 27.86C128.332 28.0877 127.936 28.3878 127.71 28.7604C127.485 29.133 127.46 29.5374 127.636 29.9738C127.811 30.4102 128.124 30.6974 128.574 30.8355C129.024 30.9736 129.572 30.9125 130.219 30.6523ZM140.826 28.8608L135.985 16.8364L138.991 15.6261L139.626 17.2019L140.062 17.0262C140.087 16.528 140.291 15.9856 140.675 15.3991C141.052 14.7965 141.782 14.2772 142.865 13.8413C143.802 13.4639 144.706 13.3535 145.577 13.5101C146.457 13.644 147.244 14.0126 147.938 14.6161C148.625 15.2034 149.17 15.998 149.574 17.0001L152.463 24.1759L149.408 25.4057L146.617 18.4723C146.252 17.5672 145.753 16.9795 145.118 16.7092C144.5 16.4323 143.778 16.4598 142.954 16.7917C142.017 17.1691 141.416 17.777 141.153 18.6156C140.883 19.4379 140.972 20.4067 141.421 21.5219L143.881 27.631L140.826 28.8608ZM155.765 22.8465L148.933 5.87654L151.987 4.64675L155.765 14.0287L156.201 13.853L158.391 7.81591L162.366 6.21523L159.157 14.2686L167.401 18.1615L163.474 19.7427L157.333 16.6652L156.897 16.8408L158.82 21.6167L155.765 22.8465Z" fill="url(#paint0_linear_2486_874)"/>
<defs>
<linearGradient id="paint0_linear_2486_874" x1="4.94206" y1="64.2623" x2="166.51" y2="45.6136" gradientUnits="userSpaceOnUse">
<stop stop-color="#B75ECE"/>
<stop offset="1" stop-color="#0077FE"/>
</linearGradient>
</defs>
</svg>
